<svg width="64" height="64" viewBox="0 0 64 64" fill="none" xmlns="http://www.w3.org/2000/svg">
<g clip-path="url(#clip0_13_109)">
<path d="M32.5463 16.7461C32.5055 16.7465 32.4655 16.7535 32.4287 16.7667C32.392 16.7799 32.3599 16.7991 32.3341 16.8226C32.3083 16.8462 32.2896 16.8738 32.2796 16.9033C32.2696 16.9328 32.2677 16.9635 32.2753 16.9934L44.6029 63.2005C50.5669 60.6318 55.609 56.3095 59.0582 50.8076L32.79 16.8486C32.7651 16.817 32.7296 16.791 32.6868 16.773C32.644 16.755 32.5954 16.7457 32.5463 16.7461Z" fill="url(#paint0_linear_13_109)"/>
<path d="M31.945 1.81006C14.2713 1.81006 -0.055542 16.1369 -0.055542 33.8101C-0.055542 39.8218 1.63756 45.7122 4.83104 50.8061L31.5115 16.3137C31.7029 16.0645 32.1857 16.0645 32.3772 16.3137L59.0576 50.8074C62.2511 45.7133 63.9455 39.8223 63.9455 33.8101C63.9455 16.1369 49.6187 1.81006 31.945 1.81006Z" fill="white"/>
</g>
<defs>
<linearGradient id="paint0_linear_13_109" x1="32.5464" y1="16.7461" x2="53.1196" y2="57.8036" gradientUnits="userSpaceOnUse">
<stop stop-color="white" stop-opacity="0"/>
<stop offset="0.495173" stop-color="white" stop-opacity="0.3"/>
<stop offset="1" stop-color="white" stop-opacity="0.3"/>
</linearGradient>
<clipPath id="clip0_13_109">
<rect width="64" height="64" fill="white"/>
</clipPath>
</defs>
</svg>
