<svg width="64" height="64" viewBox="0 0 64 64" fill="none" xmlns="http://www.w3.org/2000/svg">
<g clip-path="url(#clip0_13_113)">
<path d="M62.936 24.4L62.848 24.168L54.136 1.43199C53.9573 0.988475 53.6438 0.612346 53.2396 0.356803C52.8355 0.10126 52.3613 -0.0207624 51.884 0.00799374C51.4079 0.036674 50.9511 0.206569 50.572 0.495994C50.203 0.802083 49.9341 1.21168 49.8 1.67199L43.92 19.668H20.1L14.22 1.66799C14.0944 1.20302 13.8253 0.789534 13.451 0.486437C13.0767 0.18334 12.6163 0.00609048 12.1354 -0.0200611C11.6544 -0.0462126 11.1775 0.0800672 10.7726 0.34079C10.3676 0.601512 10.0553 0.983379 9.87999 1.43199L1.15599 24.16L1.06799 24.388C-0.184499 27.6648 -0.337819 31.2599 0.631146 34.6315C1.60011 38.003 3.63884 40.9682 6.43999 43.08L6.46799 43.104L6.54799 43.16L19.82 53.1L26.38 58.068L30.38 61.088C30.8474 61.4455 31.4195 61.6391 32.008 61.6391C32.5965 61.6391 33.1686 61.4455 33.636 61.088L37.636 58.068L44.196 53.1L57.548 43.1L57.584 43.072C60.3757 40.9573 62.4069 37.9948 63.3732 34.6285C64.3395 31.2623 64.1889 27.6735 62.944 24.4H62.936Z" fill="#F0EEFA"/>
</g>
<defs>
<clipPath id="clip0_13_113">
<rect width="64" height="64" fill="white"/>
</clipPath>
</defs>
</svg>
